<mxfile host="app.diagrams.net" modified="2023-10-24T02:01:53.478Z" agent="Mozilla/5.0 (X11; Linux x86_64) AppleWebKit/537.36 (KHTML, like Gecko) Chrome/118.0.0.0 Safari/537.36" version="22.0.6" etag="ZPnvvvhB8ObeWOb_boH2" type="github">
  <diagram name="Page-1" id="AM9Jz454eZbP0Hzq4OTY">
    <mxGraphModel>
      <root>
        <mxCell id="0" />
        <mxCell id="1" parent="0" />
      </root>
    </mxGraphModel>
  </diagram>
</mxfile>
